<?xml version="1.0"?>
<svg xmlns="http://www.w3.org/2000/svg" viewBox="0 0 512 512" width="512px" height="512px"><path d="m256 512c140.960938 0 256-115.050781 256-256 0-140.960938-115.050781-256-256-256-140.960938 0-256 115.050781-256 256 0 140.960938 115.050781 256 256 256zm0-482c124.617188 0 226 101.382812 226 226s-101.382812 226-226 226-226-101.382812-226-226 101.382812-226 226-226zm0 0" fill="#D80027"/><path d="m256 451c107.523438 0 195-87.476562 195-195s-87.476562-195-195-195-195 87.476562-195 195 87.476562 195 195 195zm165-195c0 17.753906-2.828125 34.855469-8.042969 50.890625l-95.890625-95.890625h97.695313c4.0625 14.3125 6.238281 29.40625 6.238281 45zm-165-45c24.8125 0 45 20.1875 45 45s-20.1875 45-45 45-45-20.1875-45-45 20.1875-45 45-45zm-61.066406 90h-97.695313c-4.0625-14.3125-6.238281-29.40625-6.238281-45 0-17.753906 2.828125-34.855469 8.042969-50.890625zm-85.882813 30h135.589844l-69.039063 69.039062c-28.414062-15.921874-51.664062-39.992187-66.550781-69.039062zm96.058594 81.957031 95.890625-95.890625v97.695313c-14.308594 4.0625-29.40625 6.238281-45 6.238281-17.753906 0-34.855469-2.828125-50.890625-8.042969zm125.890625-10.007812v-135.589844l69.039062 69.039063c-15.921874 28.414062-39.992187 51.664062-69.039062 66.550781zm71.949219-221.949219h-135.589844l69.039063-69.039062c28.414062 15.921874 51.664062 39.992187 66.550781 69.039062zm-96.058594-81.957031-95.890625 95.890625v-97.695313c14.308594-4.0625 29.40625-6.238281 45-6.238281 17.753906 0 34.855469 2.828125 50.890625 8.042969zm-125.890625 10.007812v135.589844l-69.039062-69.039063c15.921874-28.414062 39.992187-51.664062 69.039062-66.550781zm0 0" fill="#D80027"/></svg>
